<svg fill="none" fill-rule="evenodd" height="100%" viewBox="0 0 24 24" width="100%" xmlns="http://www.w3.org/2000/svg" fit="" preserveAspectRatio="xMidYMid meet">
  <path d="M8.12 17.92l9.004-5.203-1.71 3.42L7.14 20.92l.98-3zm-1.116-2.49L7 6.096h2V17.31l-1.996-1.88z" fill="#757575"></path>
  <path d="M9.29 9.744l2.48-1 8.184 4.72-2.998.702L9.29 9.744z" fill="#757575"></path>
  <path d="M14.433 10.28l-2.3-1.328-2.844.792 1.49.863c1.28.46 2.93.208 3.642-.328z" fill="#424242"></path>
  <path d="M7.547 8.138A4.095 4.095 0 0 1 11.092 2a4.095 4.095 0 0 1 .003 8.187 4.104 4.104 0 0 1-3.548-2.05zm5.27-3.036a1.996 1.996 0 0 0-1.724-.996c-.53 0-1.03.207-1.405.583a1.986 1.986 0 0 0 1.407 3.39 1.99 1.99 0 0 0 1.722-2.98z" fill="#757575"></path>
  <path d="M7.002 14.842L9 17.308v-1.766c-.232-1.157-1.2-1.998-2-2.36l.002 1.66zm6.274 2.53l2.444-1.412.064-2.47-1.35.782c-.705.74-1.262 2.194-1.158 3.1z" fill="#424242"></path>
  <path d="M1.548 19.422a4.1 4.1 0 0 1 1.497-5.592 4.066 4.066 0 0 1 3.106-.41c1.06.282 1.94.96 2.49 1.906.16.267.37.828.37.828v2.752c-.332.796-1.054 1.548-1.86 2.013a4.098 4.098 0 0 1-5.59-1.5zm5.266-3.04a1.975 1.975 0 0 0-1.208-.928 1.99 1.99 0 0 0-2.235 2.914 1.99 1.99 0 0 0 2.72.727 1.99 1.99 0 0 0 .73-2.714zm7.55 2.678a4.108 4.108 0 0 1-.002-4.095 4.067 4.067 0 0 1 2.485-1.91 4.066 4.066 0 0 1 3.107.41c.622.358 1.14.875 1.498 1.495.73 1.263.73 2.832.002 4.095a4.067 4.067 0 0 1-2.485 1.908 4.066 4.066 0 0 1-3.11-.408 4.093 4.093 0 0 1-1.5-1.496zm5.265-3.047a1.99 1.99 0 0 0-3.45.004 1.984 1.984 0 0 0 .73 2.715 1.96 1.96 0 0 0 1.502.197 1.976 1.976 0 0 0 1.21-.93 1.996 1.996 0 0 0 0-1.99z" fill="#757575"></path>
</svg>